<svg id="Capa_1"
    xmlns="http://www.w3.org/2000/svg" viewBox="0 0 300 300">
    <defs>
        <style>.cls-2{stroke-width:0;fill:#efefef}</style>
    </defs>
    <path style="stroke-width:0;fill:#33333d" d="M122.6 297.01h1.13v1.13h-1.13z"/>
    <path class="cls-2" d="M256.34 194.06c0-9.43-7.11-17.09-16.35-17.85 0 0-1.91-.09-2.44-.12-13.36-.79-24.01-11.6-24.49-25.03-.03-.29-.03-.57-.03-.86 0-.29 0-.56.03-.86.48-13.43 11.13-24.24 24.49-25.03.53-.03 2.45-.13 2.45-.13 9.24-.76 16.34-8.41 16.34-17.84 0-11.83-11.49-21.01-23.96-17.01-7.28 2.34-12.03 9.37-12.03 17.01-.08 13.82-10.99 25.12-24.66 25.82l-1.93.2c-9.41 1.11-16.67 8.19-16.67 17.74v.2c0 9.55 6.81 16.44 16.65 17.77l1.95.17c13.67.7 24.58 12 24.66 25.82 0 7.64 4.75 14.68 12.03 17.01 12.47 4 23.96-5.18 23.96-17.01ZM43.66 106.35c0 9.43 7.11 17.09 16.35 17.85 0 0 1.91.09 2.44.12 13.36.79 24.01 11.6 24.49 25.03.03.29.03.57.03.86 0 .29 0 .56-.03.86-.48 13.43-11.13 24.24-24.49 25.03-.53.03-2.45.13-2.45.13-9.24.76-16.34 8.41-16.34 17.84 0 11.83 11.49 21.01 23.96 17.01 7.28-2.34 12.03-9.37 12.03-17.01.08-13.82 10.99-25.12 24.66-25.82l1.93-.2c9.41-1.11 16.67-8.19 16.67-17.74v-.2c0-9.55-6.81-16.44-16.65-17.77l-1.95-.17c-13.67-.7-24.58-12-24.66-25.82 0-7.64-4.75-14.68-12.03-17.01-12.47-4-23.96 5.18-23.96 17.01ZM193.55 43.66c-9.44 0-17.1 7.1-17.86 16.34 0 0-.09 1.91-.12 2.44-.79 13.35-11.61 23.99-25.05 24.47-.29.03-.57.03-.86.03s-.56 0-.86-.03c-13.44-.48-24.27-11.12-25.05-24.47-.03-.53-.13-2.45-.13-2.45-.76-9.23-8.41-16.33-17.86-16.33-11.84 0-21.03 11.48-17.03 23.94 2.34 7.27 9.38 12.02 17.03 12.02 13.84.08 25.14 10.98 25.84 24.64l.2 1.92c1.11 9.4 8.2 16.66 17.75 16.66h.2c9.55 0 16.46-6.8 17.78-16.63l.17-1.95c.7-13.66 12.01-24.55 25.84-24.64 7.65 0 14.69-4.74 17.03-12.02 4.01-12.46-5.19-23.94-17.03-23.94ZM106.01 256.34c9.44 0 17.1-7.1 17.86-16.34 0 0 .09-1.91.12-2.44.79-13.35 11.61-23.99 25.05-24.47.29-.03.57-.03.86-.03.29 0 .56 0 .86.03 13.44.48 24.27 11.12 25.05 24.47.03.53.13 2.45.13 2.45.76 9.23 8.41 16.33 17.86 16.33 11.84 0 21.03-11.48 17.03-23.94-2.34-7.27-9.38-12.02-17.03-12.02-13.84-.08-25.14-10.98-25.84-24.64l-.2-1.92c-1.11-9.4-8.2-16.66-17.75-16.66h-.2c-9.55 0-16.46 6.8-17.78 16.63l-.17 1.95c-.7 13.66-12.01 24.55-25.84 24.64-7.65 0-14.69 4.74-17.03 12.02-4.01 12.46 5.19 23.94 17.03 23.94Z"/>
</svg>
