<?xml version="1.0" encoding="UTF-8"?>
<svg id="Capa_1"
    xmlns="http://www.w3.org/2000/svg" viewBox="0 0 473.14 150.72">
    <defs>
        <style>.cls-1{fill:#efefef;stroke-width:0px;}</style>
    </defs>
    <path class="cls-1" d="M146.43,75.54c0-12.96,10.6-23.22,23.83-23.22,6.16,0,11.78,2.16,16.03,5.76l-6.25,7.11c-2.26-2.07-5.62-3.24-9.6-3.24-7.88,0-13.77,5.67-13.77,13.59s5.44,13.5,14.04,13.5c4.17,0,8.33-1.44,10.96-3.87l5.53,7.56c-4.35,3.69-10.42,5.94-16.94,5.94-13.23,0-23.83-10.17-23.83-23.13"/>
    <path class="cls-1" d="M192.89,75.54c0-12.96,10.6-23.22,23.83-23.22s23.83,10.26,23.83,23.22-10.6,23.13-23.83,23.13-23.83-10.26-23.83-23.13M230.31,75.54c0-7.83-5.89-13.59-13.59-13.59s-13.59,5.76-13.59,13.59,5.89,13.5,13.59,13.5,13.59-5.76,13.59-13.5"/>
    <rect class="cls-1" x="273.66" y="39.44" width="10.06" height="59.23"/>
    <path class="cls-1" d="M293.57,75.54c0-12.87,8.43-23.22,20.75-23.22,6.07,0,11.41,2.43,14.95,6.57v-5.67h10.06v44.56h-10.06v-5.58c-3.53,4.14-8.88,6.48-14.95,6.48-12.32,0-20.75-10.35-20.75-23.13M329.27,75.54c0-7.83-5.26-13.59-12.41-13.59-7.61,0-13.04,5.76-13.04,13.59s5.43,13.5,13.04,13.5c7.07,0,12.41-5.58,12.41-13.5"/>
    <path class="cls-1" d="M358.28,92.19v5.58h-9.6v-59.23h10.06v20.34c3.53-4.14,8.88-6.57,14.95-6.57,12.32,0,20.75,10.35,20.75,23.22s-8.43,23.13-20.75,23.13c-6.25,0-11.78-2.34-15.4-6.48M384.44,75.54c0-7.83-5.44-13.59-13.05-13.59-7.16,0-12.41,5.76-12.41,13.59s5.34,13.5,12.41,13.5c7.61,0,13.05-5.67,13.05-13.5"/>
    <path class="cls-1" d="M399.43,92.19l3.81-8.19c2.9,2.34,7.52,5.31,14.22,5.31,4.08,0,8.88-1.53,8.88-4.68s-4.53-4.05-8.97-5.31c-8.52-2.34-15.76-4.86-15.76-13.59s8.97-13.41,16.85-13.41c6.7,0,11.14,1.71,16.04,4.59l-3.72,8.1c-3.99-2.25-7.79-3.33-12.23-3.33-3.35,0-6.71,1.53-6.71,3.87,0,3.06,3.71,3.78,7.7,4.59,8.33,1.8,17.03,5.13,17.03,14.31,0,10.44-10.78,14.22-19.12,14.22-9.24,0-15.58-4.14-18.03-6.48"/>
    <path class="cls-1" d="M118.66,91.93c0-3.55-2.74-6.43-6.31-6.71,0,0-.74-.03-.94-.04-5.16-.3-9.27-4.36-9.45-9.42,0-.11,0-.21,0-.32,0-.11,0-.21,0-.32.18-5.05,4.3-9.12,9.45-9.42.21-.01.95-.05.95-.05,3.57-.29,6.31-3.16,6.31-6.71,0-4.45-4.43-7.9-9.25-6.4-2.81.88-4.64,3.53-4.64,6.4h0c-.03,5.2-4.24,9.45-9.52,9.71l-.74.07c-3.63.42-6.44,3.08-6.44,6.67,0,.01,0,.06,0,.07,0,3.59,2.63,6.18,6.42,6.68l.75.06c5.28.26,9.49,4.51,9.52,9.71h0c0,2.87,1.83,5.52,4.64,6.4,4.81,1.51,9.25-1.95,9.25-6.4Z"/>
    <path class="cls-1" d="M36.57,58.94c0,3.55,2.74,6.43,6.31,6.71,0,0,.74.03.94.04,5.16.3,9.27,4.36,9.45,9.42,0,.11,0,.21,0,.32,0,.11,0,.21,0,.32-.18,5.05-4.3,9.12-9.45,9.42-.21.01-.95.05-.95.05-3.57.29-6.31,3.16-6.31,6.71,0,4.45,4.43,7.9,9.25,6.4,2.81-.88,4.64-3.53,4.64-6.4h0c.03-5.2,4.24-9.45,9.52-9.71l.74-.07c3.63-.42,6.44-3.08,6.44-6.67v-.07c0-3.59-2.63-6.18-6.42-6.68l-.75-.06c-5.28-.26-9.49-4.51-9.52-9.71h0c0-2.87-1.83-5.52-4.64-6.4-4.81-1.51-9.25,1.95-9.25,6.4Z"/>
    <path class="cls-1" d="M94.42,35.36c-3.64,0-6.6,2.67-6.89,6.15,0,0-.03.72-.05.92-.3,5.02-4.48,9.02-9.67,9.2-.11,0-.22,0-.33,0s-.22,0-.33,0c-5.19-.18-9.37-4.18-9.67-9.2-.01-.2-.05-.92-.05-.92-.29-3.47-3.25-6.14-6.89-6.14-4.57,0-8.12,4.32-6.57,9,.9,2.74,3.62,4.52,6.57,4.52h0c5.34.03,9.7,4.13,9.97,9.27l.08.72c.43,3.54,3.17,6.27,6.85,6.27.01,0,.06,0,.08,0,3.69,0,6.35-2.56,6.86-6.26l.07-.73c.27-5.14,4.63-9.24,9.97-9.27h0c2.95,0,5.67-1.78,6.57-4.52,1.55-4.69-2-9-6.57-9Z"/>
    <path class="cls-1" d="M60.64,115.36c3.64,0,6.6-2.67,6.89-6.15,0,0,.03-.72.05-.92.3-5.02,4.48-9.02,9.67-9.2.11,0,.22,0,.33,0s.22,0,.33,0c5.19.18,9.37,4.18,9.67,9.2.01.2.05.92.05.92.29,3.47,3.25,6.14,6.89,6.14,4.57,0,8.12-4.32,6.57-9-.9-2.74-3.62-4.52-6.57-4.52h0c-5.34-.03-9.7-4.13-9.97-9.27l-.08-.72c-.43-3.54-3.17-6.27-6.85-6.27-.01,0-.06,0-.08,0-3.69,0-6.35,2.56-6.86,6.26l-.07.73c-.27,5.14-4.63,9.24-9.97,9.27h0c-2.95,0-5.67,1.78-6.57,4.52-1.55,4.69,2,9,6.57,9Z"/>
    <ellipse class="cls-1" cx="257.1" cy="75.44" rx="6.7" ry="6.53"/>
</svg>
